<svg width="60" height="60" viewBox="0 0 60 60" fill="none" xmlns="http://www.w3.org/2000/svg">
<rect width="60" height="60" fill="white"/>
<rect width="60" height="60" rx="8" fill="#091B32"/>
<path d="M10.815 29.1389C8.8376 29.1389 7.22327 27.5884 7.22327 25.6834C7.22327 23.7871 8.8376 22.2373 10.815 22.2373C12.1559 22.2373 13.3413 22.9762 13.9795 24.0612L12.6383 24.5797C12.2374 24.0055 11.5536 23.5417 10.8147 23.5417C9.62994 23.5417 8.67301 24.5436 8.67301 25.6834C8.67301 26.8241 9.62994 27.8361 10.8147 27.8361C11.5536 27.8361 12.2371 27.3616 12.6383 26.7769L13.9795 27.2977C13.3413 28.4 12.1559 29.1389 10.815 29.1389Z" fill="white"/>
<path d="M18.2753 28.5111C18.066 28.7931 17.4637 29.1216 16.7535 29.1216C15.1662 29.1216 14.2373 27.9453 14.2373 26.5053C14.2373 25.0644 15.1665 23.8878 16.7535 23.8878C17.4836 23.8878 18.0207 24.1802 18.2753 24.5178V23.9963H19.6272V29.0124H18.2753V28.5111ZM16.9536 25.0817C16.0876 25.0817 15.5769 25.6833 15.5769 26.5037C15.5769 27.2977 16.114 27.9173 16.9536 27.9173C17.8014 27.9173 18.3313 27.3792 18.3313 26.5037C18.3313 25.6749 17.8014 25.0817 16.9536 25.0817Z" fill="white"/>
<path d="M28.1129 26.0484V29.0124H26.7361V26.0484C26.7361 25.2733 26.2896 25.0364 25.7606 25.0364C25.3864 25.0364 24.8118 25.2649 24.8017 26.2218V29.0127H23.426V26.0487C23.426 25.2753 22.969 25.0387 22.4586 25.0387C22.0401 25.0387 21.4935 25.2649 21.4935 26.36L21.4831 29.0144H20.1249V23.9983H21.4831V24.4552C21.8309 24.1437 22.3947 23.9067 22.8064 23.9067C23.5713 23.9067 24.0736 24.1629 24.421 24.5921C24.7942 24.1714 25.3584 23.9067 26.0341 23.9067C27.4766 23.9051 28.1129 24.744 28.1129 26.0484Z" fill="white"/>
<path d="M39.1414 23.4673C38.7229 23.4673 38.3735 23.1401 38.3735 22.7285C38.3735 22.3269 38.7229 22 39.1414 22C39.5498 22 39.8891 22.3289 39.8891 22.7285C39.8891 23.1385 39.5498 23.4673 39.1414 23.4673ZM38.4569 24.0051H39.8275V29.0105H38.4569V24.0051Z" fill="white"/>
<path d="M43.049 30.9002C42.1103 30.9002 41.2877 30.644 40.6501 30.1424L41.3154 29.177C41.7091 29.4866 42.3186 29.7516 43.0206 29.7327C44.1076 29.705 44.2357 29.032 44.2357 28.5649V28.4834C43.8788 28.7758 43.4121 28.9299 42.83 28.9299C41.1905 28.9299 40.1932 27.7996 40.1932 26.4226C40.1932 25.0367 41.1863 23.9054 42.83 23.9054C43.4117 23.9054 43.8788 24.0612 44.2357 24.3536V23.9963H45.5847V28.5646C45.5844 30.0055 44.6539 30.9002 43.049 30.9002ZM44.2905 26.4222C44.2905 25.6459 43.6888 25.0628 42.9131 25.0628C42.0761 25.0628 41.5357 25.656 41.5357 26.4222C41.5357 27.2061 42.048 27.7804 42.9131 27.7804C43.6888 27.7804 44.2905 27.1869 44.2905 26.4222Z" fill="white"/>
<path d="M50.7546 26.0484V29.0124H49.356V26.0484C49.356 25.2733 48.9202 25.0364 48.3909 25.0364C48.0174 25.0364 47.4053 25.2648 47.432 26.3583V29.0127H46.0762V23.9963H47.432V24.4448C47.7713 24.1068 48.3251 23.9051 48.7746 23.9051C50.2214 23.9051 50.7546 24.744 50.7546 26.0484Z" fill="white"/>
<path d="M10.6576 29.6956L14.3149 36.5717H12.7377L12.2081 35.5506H9.09867L8.58663 36.5717H7L10.6576 29.6956ZM11.5141 34.3186L10.6576 32.5778L9.80985 34.3186H11.5141Z" fill="white"/>
<path d="M16.5172 38.4608C15.5779 38.4608 14.7582 38.2053 14.12 37.6998L14.7862 36.7376C15.177 37.0456 15.7894 37.3123 16.4905 37.2914C17.5765 37.2637 17.7033 36.5919 17.7033 36.1252V36.0424C17.3483 36.3364 16.8822 36.488 16.2979 36.488C14.6581 36.488 13.663 35.3599 13.663 33.9832C13.663 32.5951 14.6561 31.4654 16.2979 31.4654C16.8822 31.4654 17.3483 31.6195 17.7033 31.9119V31.5553H19.0543V36.1249C19.0539 37.5649 18.1227 38.4608 16.5172 38.4608ZM17.7577 33.9835C17.7577 33.2081 17.1567 32.6234 16.3813 32.6234C15.544 32.6234 15.0036 33.215 15.0036 33.9835C15.0036 34.7651 15.5159 35.3394 16.3813 35.3394C17.1567 35.3394 17.7577 34.7475 17.7577 33.9835Z" fill="white"/>
<path d="M19.4714 34.0803C19.4714 32.0211 21.2585 31.4745 22.1978 31.4745C23.4827 31.4745 24.7688 32.3499 24.8141 33.9627C24.8141 34.3463 24.7864 34.5917 24.7864 34.5917H20.8296C20.9935 35.4127 21.9228 35.5056 22.1978 35.5056C22.9537 35.5056 23.3269 35.0943 23.4827 34.9209L24.5406 35.5333C24.3418 35.8035 23.6649 36.6995 22.1978 36.6995C21.2227 36.6995 19.4714 36.1428 19.4714 34.0803ZM20.8658 33.6234H23.3748C23.3191 33.1697 22.8725 32.6684 22.1877 32.6684C21.4039 32.6684 20.9212 33.1152 20.8658 33.6234Z" fill="white"/>
<path d="M29.9928 33.609V36.5717H28.6017V33.609C28.6017 32.8346 28.1614 32.5954 27.6324 32.5954C27.2592 32.5954 26.6478 32.8242 26.6755 33.9203V36.5717H25.3173V31.5573H26.6755V32.0038C27.0125 31.6665 27.5685 31.4657 28.0157 31.4657C29.4667 31.4641 29.9928 32.305 29.9928 33.609Z" fill="white"/>
<path d="M32.2169 34.7856C32.2169 35.0555 32.2274 35.533 32.8365 35.533C32.9923 35.533 33.1025 35.5196 33.183 35.5125V36.6607C33.02 36.6816 32.7674 36.6988 32.5735 36.6988C31.5146 36.6988 30.8679 36.5095 30.8679 35.4502V32.6681H30.2555V31.4742H30.8679V30.1336H32.2169V31.4748H33.2202V32.6687H32.2169V34.7856Z" fill="white"/>
<path d="M36.6366 23.9963V24.5155C36.3801 24.1782 35.8436 23.8858 35.1139 23.8858C34.4248 23.8858 33.8649 24.112 33.4464 24.4794V24.4823C33.7678 24.8304 33.993 25.2769 34.1031 25.7788C34.3176 25.3551 34.7335 25.0817 35.315 25.0817C36.163 25.0817 36.6917 25.6749 36.6917 26.505C36.6917 27.3808 36.163 27.9173 35.315 27.9173C34.9199 27.9173 34.5953 27.7804 34.3603 27.5555C34.124 27.3322 33.9783 27.0229 33.9447 26.6683C33.9447 26.6419 33.9447 26.6126 33.9405 26.5852C33.9372 26.5588 33.9372 26.5314 33.9372 26.5037C33.9372 25.7788 33.7019 25.1231 33.2658 24.6472C33.2482 24.6283 33.2277 24.611 33.2101 24.5905C33.1896 24.5713 33.169 24.5524 33.1511 24.5335C32.7264 24.1319 32.1446 23.8865 31.4207 23.8865C30.7122 23.8865 30.1102 24.2147 29.8986 24.497V23.9947H28.546V30.6248H29.8986V28.4919C30.1512 28.8289 30.6906 29.1213 31.4207 29.1213C31.7291 29.1213 32.0126 29.0747 32.2695 28.9915C32.5872 28.8915 32.8574 28.7285 33.0862 28.5264V28.5245C32.7675 28.1754 32.5387 27.7269 32.4314 27.2253C32.3871 27.3169 32.3314 27.4036 32.2695 27.4799C32.0332 27.7582 31.6737 27.9258 31.2206 27.9258C30.3729 27.9258 29.8429 27.3345 29.8429 26.5037C29.8429 25.6283 30.3729 25.0902 31.2206 25.0902C31.9996 25.0902 32.5178 25.6266 32.5869 26.3394C32.5911 26.3672 32.5941 26.3952 32.5941 26.4226C32.5941 26.4503 32.5973 26.4763 32.5973 26.5053C32.5973 27.2289 32.8336 27.8863 33.2655 28.3605C33.286 28.3811 33.3069 28.398 33.3245 28.4192C33.3421 28.4384 33.3623 28.459 33.3832 28.4763C33.6465 28.7272 33.978 28.914 34.36 29.0215C34.595 29.0854 34.8433 29.1216 35.1139 29.1216C35.8263 29.1216 36.4283 28.7947 36.6366 28.5111V29.0127H37.9856V23.9963H36.6366Z" fill="white"/>
<path d="M50.7197 24.1094H50.9133V24.6713H51.0411V24.1094H51.2353V23.9931H50.7197V24.1094Z" fill="white"/>
<path d="M51.661 24.3842L51.3292 23.9947H51.3217V24.6713H51.4498V24.3291L51.661 24.583L51.8722 24.3291V24.6713H52V23.9947H51.9928L51.661 24.3842Z" fill="white"/>
</svg>
