<svg width="60" height="39" viewBox="0 0 60 39" fill="none" xmlns="http://www.w3.org/2000/svg">
<path d="M0 4C0 1.79086 1.79086 0 4 0H56C58.2091 0 60 1.79086 60 4V34.5714C60 36.7806 58.2091 38.5714 56 38.5714H4C1.79086 38.5714 0 36.7806 0 34.5714V4Z" fill="#091B32"/>
<rect width="60" height="24" transform="translate(0 7)" fill="white"/>
<rect y="7" width="60" height="24" fill="#091B32"/>
<path d="M11.3149 17.8889C9.33748 17.8889 7.72314 16.3384 7.72314 14.4334C7.72314 12.5371 9.33748 10.9873 11.3149 10.9873C12.6558 10.9873 13.8412 11.7262 14.4794 12.8112L13.1382 13.3298C12.7373 12.7555 12.0535 12.2917 11.3146 12.2917C10.1298 12.2917 9.17289 13.2936 9.17289 14.4334C9.17289 15.5741 10.1298 16.5861 11.3146 16.5861C12.0535 16.5861 12.7369 16.1116 13.1382 15.5269L14.4794 16.0477C13.8412 17.15 12.6558 17.8889 11.3149 17.8889Z" fill="white"/>
<path d="M18.7753 17.2611C18.566 17.5431 17.9637 17.8716 17.2535 17.8716C15.6662 17.8716 14.7373 16.6953 14.7373 15.2554C14.7373 13.8144 15.6665 12.6378 17.2535 12.6378C17.9836 12.6378 18.5207 12.9302 18.7753 13.2678V12.7464H20.1272V17.7624H18.7753V17.2611V17.2611ZM17.4536 13.8317C16.5876 13.8317 16.0769 14.4334 16.0769 15.2537C16.0769 16.0477 16.614 16.6673 17.4536 16.6673C18.3014 16.6673 18.8313 16.1292 18.8313 15.2537C18.8313 14.4249 18.3014 13.8317 17.4536 13.8317Z" fill="white"/>
<path d="M28.6129 14.7984V17.7624H27.2362V14.7984C27.2362 14.0233 26.7897 13.7864 26.2607 13.7864C25.8865 13.7864 25.3119 14.0148 25.3018 14.9718V17.7627H23.926V14.7987C23.926 14.0253 23.4691 13.7886 22.9587 13.7886C22.5402 13.7886 21.9936 14.0148 21.9936 15.11L21.9832 17.7643H20.625V12.7483H21.9832V13.2052C22.3309 12.8936 22.8948 12.6567 23.3064 12.6567C24.0714 12.6567 24.5737 12.9129 24.9211 13.3421C25.2943 12.9213 25.8585 12.6567 26.5341 12.6567C27.9767 12.655 28.6129 13.494 28.6129 14.7984Z" fill="white"/>
<path d="M39.6414 12.2173C39.2229 12.2173 38.8735 11.8901 38.8735 11.4785C38.8735 11.0769 39.2229 10.75 39.6414 10.75C40.0498 10.75 40.3891 11.0789 40.3891 11.4785C40.3891 11.8885 40.0498 12.2173 39.6414 12.2173ZM38.957 12.7551H40.3275V17.7605H38.957V12.7551Z" fill="white"/>
<path d="M43.5492 19.6502C42.6105 19.6502 41.7878 19.394 41.1503 18.8924L41.8155 17.927C42.2093 18.2366 42.8188 18.5016 43.5208 18.4827C44.6078 18.455 44.7359 17.782 44.7359 17.3149V17.2334C44.379 17.5258 43.9123 17.6799 43.3301 17.6799C41.6907 17.6799 40.6934 16.5496 40.6934 15.1726C40.6934 13.7867 41.6865 12.6554 43.3301 12.6554C43.9119 12.6554 44.379 12.8112 44.7359 13.1036V12.7463H46.0849V17.3146C46.0846 18.7555 45.154 19.6502 43.5492 19.6502ZM44.7906 15.1722C44.7906 14.3959 44.189 13.8128 43.4133 13.8128C42.5763 13.8128 42.0359 14.406 42.0359 15.1722C42.0359 15.9561 42.5482 16.5304 43.4133 16.5304C44.189 16.5304 44.7906 15.9369 44.7906 15.1722Z" fill="white"/>
<path d="M51.2546 14.7984V17.7624H49.856V14.7984C49.856 14.0233 49.4202 13.7864 48.8909 13.7864C48.5174 13.7864 47.9053 14.0149 47.932 15.1084V17.7628H46.5762V12.7464H47.932V13.1948C48.2713 12.8568 48.8251 12.6551 49.2746 12.6551C50.7214 12.6551 51.2546 13.494 51.2546 14.7984Z" fill="white"/>
<path d="M11.1576 18.4456L14.8149 25.3217H13.2377L12.7081 24.3006H9.59867L9.08663 25.3217H7.5L11.1576 18.4456ZM12.0141 23.0686L11.1576 21.3278L10.3099 23.0686H12.0141Z" fill="white"/>
<path d="M17.0173 27.2109C16.0779 27.2109 15.2582 26.9553 14.62 26.4498L15.2862 25.4877C15.677 25.7957 16.2895 26.0623 16.9905 26.0414C18.0765 26.0137 18.2033 25.342 18.2033 24.8752V24.7924C17.8484 25.0864 17.3823 25.238 16.7979 25.238C15.1582 25.238 14.1631 24.1099 14.1631 22.7332C14.1631 21.3451 15.1562 20.2154 16.7979 20.2154C17.3823 20.2154 17.8484 20.3696 18.2033 20.6619V20.3054H19.5543V24.8749C19.554 26.3149 18.6228 27.2109 17.0173 27.2109ZM18.2578 22.7335C18.2578 21.9581 17.6567 21.3734 16.8814 21.3734C16.044 21.3734 15.5036 21.965 15.5036 22.7335C15.5036 23.5151 16.016 24.0894 16.8814 24.0894C17.6567 24.0894 18.2578 23.4975 18.2578 22.7335Z" fill="white"/>
<path d="M19.9717 22.8303C19.9717 20.7711 21.7588 20.2245 22.6981 20.2245C23.9829 20.2245 25.269 21.0999 25.3143 22.7126C25.3143 23.0963 25.2866 23.3417 25.2866 23.3417H21.3298C21.4938 24.1627 22.423 24.2556 22.6981 24.2556C23.4539 24.2556 23.8271 23.8443 23.9829 23.6709L25.0409 24.2833C24.8421 24.5535 24.1651 25.4495 22.6981 25.4495C21.7229 25.4495 19.9717 24.8928 19.9717 22.8303ZM21.366 22.3734H23.875C23.8193 21.9197 23.3728 21.4184 22.688 21.4184C21.9041 21.4184 21.4214 21.8652 21.366 22.3734Z" fill="white"/>
<path d="M30.4929 22.359V25.3217H29.1018V22.359C29.1018 21.5846 28.6615 21.3454 28.1325 21.3454C27.7593 21.3454 27.1478 21.5742 27.1755 22.6703V25.3217H25.8174V20.3073H27.1755V20.7538C27.5126 20.4165 28.0686 20.2157 28.5158 20.2157C29.9668 20.2141 30.4929 21.055 30.4929 22.359Z" fill="white"/>
<path d="M32.7168 23.5356C32.7168 23.8055 32.7273 24.283 33.3364 24.283C33.4922 24.283 33.6024 24.2696 33.6829 24.2624V25.4107C33.5199 25.4316 33.2673 25.4488 33.0734 25.4488C32.0144 25.4488 31.3678 25.2595 31.3678 24.2002V21.418H30.7554V20.2242H31.3678V18.8836H32.7168V20.2248H33.72V21.4187H32.7168V23.5356V23.5356Z" fill="white"/>
<path d="M37.1365 12.7464V13.2656C36.88 12.9282 36.3435 12.6359 35.6137 12.6359C34.9247 12.6359 34.3648 12.8621 33.9463 13.2294V13.2323C34.2676 13.5804 34.4929 14.0269 34.603 14.5289C34.8175 14.1052 35.2334 13.8317 35.8148 13.8317C36.6629 13.8317 37.1916 14.4249 37.1916 15.255C37.1916 16.1308 36.6629 16.6673 35.8148 16.6673C35.4198 16.6673 35.0952 16.5304 34.8602 16.3055C34.6239 16.0823 34.4782 15.773 34.4446 15.4183C34.4446 15.3919 34.4446 15.3626 34.4404 15.3352C34.4371 15.3088 34.4371 15.2814 34.4371 15.2537C34.4371 14.5289 34.2018 13.8731 33.7657 13.3972C33.7481 13.3783 33.7276 13.3611 33.71 13.3405C33.6894 13.3213 33.6689 13.3024 33.651 13.2835C33.2263 12.8819 32.6445 12.6365 31.9206 12.6365C31.212 12.6365 30.61 12.9647 30.3985 13.247V12.7447H29.0459V19.3748H30.3985V17.2419C30.6511 17.5789 31.1905 17.8713 31.9206 17.8713C32.2289 17.8713 32.5125 17.8247 32.7693 17.7416C33.0871 17.6415 33.3573 17.4785 33.5861 17.2765V17.2745C33.2674 16.9254 33.0386 16.477 32.9313 15.9754C32.887 16.0669 32.8313 16.1536 32.7693 16.2299C32.533 16.5083 32.1735 16.6758 31.7205 16.6758C30.8727 16.6758 30.3428 16.0845 30.3428 15.2537C30.3428 14.3783 30.8727 13.8402 31.7205 13.8402C32.4995 13.8402 33.0177 14.3767 33.0868 15.0895C33.091 15.1172 33.094 15.1452 33.094 15.1726C33.094 15.2003 33.0972 15.2264 33.0972 15.2554C33.0972 15.9789 33.3335 16.6363 33.7654 17.1106C33.7859 17.1311 33.8068 17.1481 33.8244 17.1692C33.842 17.1885 33.8622 17.209 33.883 17.2263C34.1464 17.4772 34.4779 17.664 34.8599 17.7716C35.0949 17.8354 35.3432 17.8716 35.6137 17.8716C36.3262 17.8716 36.9282 17.5447 37.1365 17.2612V17.7628H38.4855V12.7464H37.1365Z" fill="white"/>
<path d="M51.2197 12.8594H51.4133V13.4213H51.5411V12.8594H51.7353V12.743H51.2197V12.8594Z" fill="white"/>
<path d="M52.1611 13.1342L51.8293 12.7447H51.8218V13.4213H51.9499V13.0791L52.1611 13.333L52.3723 13.0791V13.4213H52.5V12.7447H52.4929L52.1611 13.1342Z" fill="white"/>
</svg>
